<svg width="24" height="24" viewBox="0 0 24 24" fill="none" xmlns="http://www.w3.org/2000/svg">
<path d="M12 0C5.376 0 0 5.376 0 12C0 18.624 5.376 24 12 24C18.624 24 24 18.624 24 12C24 5.376 18.624 0 12 0Z" fill="#E8F8FF"/>
<path d="M12 3.60001C13.992 3.60001 15.6 5.20801 15.6 7.20001C15.6 9.19201 13.992 10.8 12 10.8C10.008 10.8 8.39999 9.19201 8.39999 7.20001C8.39999 5.20801 10.008 3.60001 12 3.60001Z" fill="#BAD9E7"/>
<path d="M12 20.64C8.99999 20.64 6.34799 19.104 4.79999 16.776C4.83599 14.388 9.59999 13.08 12 13.08C14.388 13.08 19.164 14.388 19.2 16.776C17.652 19.104 15 20.64 12 20.64Z" fill="#BAD9E7"/>
</svg>
