<svg width="116" height="45" viewBox="0 0 116 45" fill="none" xmlns="http://www.w3.org/2000/svg">
<path d="M0 35V15.513H4.16057V17.099C4.72244 16.527 5.37797 16.0763 6.12714 15.747C6.88522 15.4177 7.69236 15.253 8.54856 15.253C9.69015 15.253 10.7604 15.5303 11.7593 16.085C12.7671 16.631 13.5787 17.4327 14.1941 18.49C14.8184 19.5473 15.1305 20.8343 15.1305 22.351C15.1305 23.937 14.8273 25.2717 14.2208 26.355C13.6144 27.4297 12.8117 28.2443 11.8128 28.799C10.8139 29.3537 9.72582 29.631 8.54856 29.631C7.69236 29.631 6.88522 29.4577 6.12714 29.111C5.37797 28.7643 4.72244 28.292 4.16057 27.694V35H0ZM4.16057 22.949C4.16057 23.5903 4.3211 24.1537 4.64217 24.639C4.96325 25.1157 5.37351 25.484 5.87295 25.744C6.38132 26.004 6.91644 26.134 7.47832 26.134C8.38802 26.134 9.17733 25.8307 9.84623 25.224C10.524 24.6087 10.863 23.651 10.863 22.351C10.863 21.051 10.5285 20.1063 9.8596 19.517C9.1907 18.919 8.39694 18.62 7.47832 18.62C6.92536 18.62 6.3947 18.75 5.88633 19.01C5.37797 19.2613 4.96325 19.621 4.64217 20.089C4.3211 20.557 4.16057 21.116 4.16057 21.766V22.949Z" fill="#423D59"/>
<path d="M17.7154 29.319V15.513H21.876V17.385C22.2863 16.735 22.8303 16.2193 23.5081 15.838C24.1949 15.448 25.0154 15.253 25.9697 15.253C26.5405 15.253 26.9864 15.2963 27.3075 15.383C27.6375 15.461 27.8426 15.5217 27.9229 15.565L27.2406 19.179C27.1603 19.1357 26.9819 19.0663 26.7055 18.971C26.429 18.8757 26.0722 18.828 25.6352 18.828C24.6809 18.828 23.9273 19.0273 23.3743 19.426C22.8303 19.8247 22.4423 20.3317 22.2104 20.947C21.9875 21.5537 21.876 22.1733 21.876 22.806V29.319H17.7154Z" fill="#423D59"/>
<path d="M36.878 29.618C35.344 29.618 33.9928 29.3103 32.8244 28.695C31.6561 28.0797 30.7419 27.2347 30.0819 26.16C29.4309 25.0767 29.1054 23.8287 29.1054 22.416C29.1054 21.012 29.4309 19.7727 30.0819 18.698C30.7419 17.6147 31.6561 16.774 32.8244 16.176C33.9928 15.5693 35.344 15.266 36.878 15.266C38.412 15.266 39.7632 15.5693 40.9315 16.176C42.0999 16.774 43.0096 17.6147 43.6606 18.698C44.3206 19.7727 44.6506 21.012 44.6506 22.416C44.6506 23.8287 44.3206 25.0767 43.6606 26.16C43.0096 27.2347 42.0999 28.0797 40.9315 28.695C39.7632 29.3103 38.412 29.618 36.878 29.618ZM36.878 26.42C37.9571 26.42 38.8223 26.056 39.4733 25.328C40.1244 24.6 40.4499 23.6293 40.4499 22.416C40.4499 21.2027 40.1244 20.2407 39.4733 19.53C38.8223 18.8193 37.9571 18.464 36.878 18.464C35.7988 18.464 34.9337 18.8193 34.2826 19.53C33.6316 20.2407 33.3061 21.2027 33.3061 22.416C33.3061 23.6293 33.6316 24.6 34.2826 25.328C34.9337 26.056 35.7988 26.42 36.878 26.42Z" fill="#423D59"/>
<path d="M53.181 29.631C51.9948 29.631 50.9023 29.358 49.9034 28.812C48.9045 28.2573 48.1018 27.4383 47.4953 26.355C46.8889 25.2717 46.5856 23.937 46.5856 22.351C46.5856 20.8343 46.8933 19.5473 47.5087 18.49C48.133 17.4327 48.9446 16.631 49.9435 16.085C50.9513 15.5303 52.0305 15.253 53.181 15.253C54.0283 15.253 54.8265 15.4177 55.5757 15.747C56.3337 16.0677 56.9937 16.5183 57.5556 17.099V9H61.7162V29.319H57.5556V27.707C57.0026 28.2963 56.3471 28.7643 55.589 29.111C54.8399 29.4577 54.0372 29.631 53.181 29.631ZM54.2379 26.134C54.8086 26.134 55.3438 26.004 55.8432 25.744C56.3516 25.4753 56.7618 25.0983 57.074 24.613C57.3951 24.1277 57.5556 23.5557 57.5556 22.897V21.766C57.5556 21.116 57.3951 20.557 57.074 20.089C56.7529 19.621 56.3382 19.2613 55.8298 19.01C55.3215 18.75 54.7908 18.62 54.2379 18.62C53.3281 18.62 52.5344 18.919 51.8566 19.517C51.1877 20.1063 50.8532 21.051 50.8532 22.351C50.8532 23.651 51.1877 24.6087 51.8566 25.224C52.5344 25.8307 53.3281 26.134 54.2379 26.134Z" fill="#423D59"/>
<path d="M69.9217 29.579C68.9139 29.579 68.0844 29.423 67.4334 29.111C66.7823 28.7903 66.2695 28.3613 65.8949 27.824C65.5203 27.2867 65.2572 26.6887 65.1056 26.03C64.954 25.3713 64.8782 24.704 64.8782 24.028V15.513H69.0254V22.962C69.0254 23.5427 69.0923 24.0757 69.226 24.561C69.3598 25.0463 69.6051 25.4363 69.9618 25.731C70.3186 26.0257 70.8359 26.173 71.5137 26.173C72.1558 26.173 72.7043 25.991 73.1592 25.627C73.623 25.263 73.9752 24.8037 74.216 24.249C74.4568 23.6857 74.5772 23.105 74.5772 22.507V15.513H78.7244V29.319H74.5772V27.317C74.0778 28.0103 73.4312 28.5607 72.6374 28.968C71.8526 29.3753 70.9473 29.579 69.9217 29.579Z" fill="#423D59"/>
<path d="M88.9931 29.631C87.4324 29.631 86.0633 29.3277 84.8861 28.721C83.7177 28.1057 82.808 27.2563 82.157 26.173C81.5059 25.081 81.1804 23.8157 81.1804 22.377C81.1804 20.9383 81.5059 19.686 82.157 18.62C82.808 17.554 83.7177 16.7263 84.8861 16.137C86.0633 15.5477 87.4324 15.253 88.9931 15.253C90.1615 15.253 91.1916 15.422 92.0834 15.76C92.9842 16.0893 93.7379 16.527 94.3443 17.073C94.9597 17.6103 95.4235 18.2083 95.7356 18.867C96.0478 19.517 96.2039 20.1627 96.2039 20.804V20.908H92.0968C92.0968 20.8387 92.0834 20.739 92.0567 20.609C91.9497 20.063 91.6464 19.5733 91.147 19.14C90.6564 18.7067 89.9296 18.49 88.9664 18.49C87.9407 18.49 87.0845 18.8237 86.3978 19.491C85.72 20.1497 85.3811 21.1117 85.3811 22.377C85.3811 23.625 85.72 24.6087 86.3978 25.328C87.0845 26.0387 87.9407 26.394 88.9664 26.394C90.0188 26.394 90.7858 26.1643 91.2674 25.705C91.749 25.237 92.0255 24.678 92.0968 24.028H96.2039C96.2039 24.678 96.0478 25.3323 95.7356 25.991C95.4324 26.6497 94.9776 27.252 94.3711 27.798C93.7646 28.344 93.011 28.786 92.1102 29.124C91.2183 29.462 90.1793 29.631 88.9931 29.631Z" fill="#423D59"/>
<path d="M105.646 29.605C105.102 29.605 104.54 29.5573 103.961 29.462C103.39 29.3753 102.859 29.1977 102.369 28.929C101.878 28.6517 101.477 28.2487 101.165 27.72C100.861 27.1913 100.71 26.4937 100.71 25.627V18.633H97.4321V15.513H98.3552C99.0776 15.513 99.6038 15.4653 99.9338 15.37C100.273 15.2747 100.487 15.032 100.576 14.642C100.665 14.2433 100.71 13.5977 100.71 12.705V10.963H104.87V15.513H109.004V18.633H104.87V24.483C104.87 25.081 104.942 25.5663 105.084 25.939C105.236 26.3117 105.606 26.498 106.195 26.498C106.489 26.498 106.766 26.472 107.024 26.42C107.292 26.368 107.492 26.316 107.626 26.264V29.293C107.439 29.371 107.176 29.4403 106.837 29.501C106.498 29.5703 106.101 29.605 105.646 29.605Z" fill="#423D59"/>
<path d="M113.806 29.709C113.191 29.709 112.669 29.501 112.241 29.085C111.813 28.669 111.599 28.162 111.599 27.564C111.599 26.9747 111.813 26.472 112.241 26.056C112.669 25.64 113.191 25.432 113.806 25.432C114.412 25.432 114.93 25.64 115.358 26.056C115.786 26.472 116 26.9747 116 27.564C116 28.162 115.786 28.669 115.358 29.085C114.93 29.501 114.412 29.709 113.806 29.709Z" fill="#423D59"/>
<ellipse cx="37" cy="22.5" rx="8" ry="7.5" fill="#C774EE"/>
</svg>
